<svg width="60" height="60" viewBox="0 0 60 60" fill="none" xmlns="http://www.w3.org/2000/svg">
<mask id="mask0_57_6985" style="mask-type:luminance" maskUnits="userSpaceOnUse" x="1" y="1" width="58" height="58">
<path d="M58.2383 1.875H1.87134V58.242H58.2383V1.875Z" fill="white"/>
</mask>
<g mask="url(#mask0_57_6985)">
<path d="M31.2093 8.75307C32.8198 8.81058 34.4303 9.09817 36.0408 9.61583C38.2921 10.2514 40.2977 11.555 41.7925 13.3545C42.8853 14.7924 43.5756 16.5179 43.8056 18.3009C44.1161 20.2224 44.1548 22.178 43.9207 24.1102L43.6331 26.0658L43.403 27.2161C43.3455 27.3312 43.3455 27.3312 43.2304 27.3312C43.1154 27.1011 43.1154 26.871 43.1154 26.641C43.0579 25.7782 43.1729 24.9729 43.2304 24.1102C43.288 22.7298 43.403 21.3494 43.288 19.9689L42.9429 17.3807C42.5402 15.7702 41.7925 14.2747 40.6422 13.0669C39.6069 12.0316 38.3415 11.1688 37.0186 10.5936C35.7532 10.076 34.4878 9.73086 33.1649 9.50079C32.1296 9.32824 31.0943 9.27072 30.059 9.27072C27.5067 9.22892 24.9818 9.80098 22.6968 10.9387C21.949 11.4564 21.2588 12.0891 20.6837 12.7793C18.9138 15.1025 17.8192 17.869 17.5202 20.7742C17.4627 22.1546 17.5202 23.4775 17.9803 24.8004L18.383 25.6632L19.0732 25.7207L19.1307 25.8932C18.9581 26.0083 18.7281 26.0083 18.498 26.0658C17.9228 26.1808 17.3477 26.4109 16.83 26.756C16.4274 27.0436 16.0248 27.3887 15.7947 27.8488C15.5071 28.424 15.6221 29.1142 15.7372 29.7469C16.0248 30.8397 16.715 31.875 17.6352 32.5652C18.2679 33.0829 19.0732 33.3705 19.8784 33.4855C20.4536 33.6005 21.0288 33.4855 21.6039 33.428C21.8915 33.6581 22.0641 34.1182 22.2366 34.4058L23.2719 35.9588C24.2077 37.2886 25.5345 38.2939 27.0681 38.8346C28.3335 39.3523 29.6564 39.6399 30.9793 39.9274L33.3375 40.3876L34.3153 40.6752V40.9052H33.6251C32.3321 40.8331 31.045 40.6794 29.7714 40.4451C28.0609 40.1047 26.4248 39.4619 24.9399 38.547C24.3073 38.1444 23.7321 37.6268 23.2719 36.9941C23.6703 39.3914 23.3501 41.853 22.3517 44.0687C21.4889 45.6217 20.051 46.8295 18.3255 47.3472C18.1529 47.4047 17.9228 47.4622 17.7503 47.4047C17.6352 47.4047 17.6352 47.3472 17.6352 47.2321C17.6928 47.0596 17.8653 46.9446 17.9803 46.887C18.6706 46.4269 19.4758 46.0818 20.166 45.5641C20.9137 44.9315 21.5464 44.2412 21.949 43.3785C22.2941 42.5157 22.5242 41.5379 22.6392 40.5601C22.7543 39.8124 22.8118 39.0647 22.7543 38.2594L22.5242 36.0738L21.4889 34.0032L20.3961 34.2332C19.5518 34.2578 18.7147 34.0707 17.9613 33.6889C17.2078 33.3072 16.5618 32.7429 16.0823 32.0476C15.3325 31.0977 14.927 29.9217 14.9319 28.7116C14.9319 28.1939 15.1045 27.6763 15.3921 27.2736C15.6797 26.871 16.0823 26.5259 16.4849 26.2958C16.7725 26.0658 17.1751 25.9507 17.5202 25.8357L17.0026 24.4553C16.715 23.1899 16.715 21.867 16.8875 20.6016C17.2642 17.4607 18.5202 14.49 20.5111 12.0316C21.0288 11.4564 21.5464 10.9387 22.1791 10.5361C22.5817 10.306 22.9844 10.2485 23.3295 10.0184C25.8027 8.92562 28.506 8.58051 31.2093 8.75307Z" fill="#262626"/>
<path d="M30.0583 9.26915C32.4482 9.18026 34.8273 9.63248 37.0179 10.5921C38.3408 11.1672 39.6062 12.03 40.6415 13.0653C41.7918 14.2732 42.5396 15.7686 42.9422 17.3791L43.2873 19.9674C43.4023 21.3478 43.2873 22.7282 43.2298 24.1086C43.1723 24.9714 43.0572 25.7766 43.1147 26.6394C43.1147 26.8695 43.1147 27.0995 43.2298 27.3296L43.1723 28.4799C43.0572 28.7675 43.0572 29.0551 43.0572 29.4002C42.9422 30.7806 42.9422 32.2186 42.7121 33.6565C42.6546 34.3467 42.5396 35.0944 42.252 35.7271C42.0794 36.2448 41.7918 36.7049 41.3892 37.1075C40.699 37.8553 39.8363 38.4879 38.916 39.0056C37.8231 39.6383 36.6728 39.9259 35.58 40.386C35.2924 40.5011 35.0048 40.6161 34.8322 40.8462C35.2924 40.9037 35.695 40.8462 36.1551 40.7311C35.8676 41.4213 35.81 42.1115 35.81 42.8017C35.81 43.0893 35.7525 43.4344 35.8676 43.722C36.0401 44.0096 36.3277 44.2397 36.6153 44.4122L38.6284 45.16C39.8938 45.6201 41.1016 46.1953 42.367 46.7129C42.482 46.943 42.6546 47.1155 42.7121 47.4031C43.0572 48.0358 43.1147 48.726 42.8847 49.4162C42.5971 50.164 42.0219 50.7966 41.3317 51.1993C40.4114 51.832 39.2611 52.2921 38.1683 52.5797C33.696 53.5352 29.0592 53.3971 24.6517 52.1771C23.5013 51.7744 22.351 51.3718 21.3157 50.7966C20.5104 50.3365 19.6477 49.7613 19.015 49.0136C18.6699 48.5535 18.3823 47.9208 18.3248 47.3456C19.6716 46.9345 20.8636 46.1278 21.7458 45.0302C22.6279 43.9326 23.1595 42.595 23.2713 41.1913C23.5013 39.8108 23.5013 38.3729 23.2713 36.9925C23.7314 37.6252 24.3066 38.1428 24.9393 38.5455L26.4922 39.3507C28.7472 40.3235 31.1691 40.8509 33.6244 40.9037H34.3146V40.6736L33.3368 40.386L30.9786 39.9259C29.6557 39.6383 28.3328 39.3507 27.0674 38.833C26.3197 38.4879 25.5144 38.0853 24.8242 37.6252C24.2491 37.1075 23.7314 36.5899 23.2713 35.9572L22.236 34.4042C22.0634 34.1166 21.8909 33.6565 21.6033 33.4264C21.0281 33.4839 20.4529 33.599 19.8777 33.4839C19.0725 33.3689 18.2673 33.0813 17.6346 32.5637C16.7154 31.8526 16.0499 30.8643 15.7365 29.7453C15.6215 29.1126 15.5064 28.4224 15.794 27.8472C16.0241 27.3871 16.4267 27.042 16.8293 26.7544C17.347 26.4093 17.9222 26.1792 18.4973 26.0642C18.7274 26.0067 18.9575 26.0067 19.13 25.8917L19.0725 25.7191L18.3823 25.6616L17.9797 24.7988C17.5195 23.4759 17.462 22.153 17.5771 20.7726C17.8592 17.8731 18.9337 15.1072 20.683 12.7777C21.2582 12.0875 21.9484 11.4548 22.6961 10.9372C24.9761 9.77951 27.5013 9.18767 30.0583 9.21164V9.26915Z" fill="#FFDECC"/>
<path d="M17.6936 28.1406C17.9237 28.1406 18.0962 28.1406 18.3263 28.2557C18.6139 28.3132 18.959 28.4857 19.1315 28.7158C19.2466 28.8884 19.2466 29.1184 19.1315 29.291C18.8439 29.6361 18.4413 29.8661 18.2113 30.2112C18.5564 30.4413 19.0165 30.5564 19.4191 30.7289C19.6492 30.7864 19.8793 30.9015 20.0518 31.074L20.1093 31.2466L19.6492 31.1315L18.2688 30.7289C18.0387 30.6714 17.8086 30.5564 17.7511 30.3263C17.6936 30.1537 17.8086 29.9237 17.9237 29.7511L18.7864 29.0034C18.5564 28.6008 17.9237 28.5432 17.6936 28.1406ZM43.1738 28.4857L43.2888 28.6583L43.4038 29.5786C43.5232 31.2848 43.4847 32.9984 43.2888 34.6976C43.1738 35.3303 43.0012 36.0205 42.7136 36.5957C41.1876 38.5923 39.044 40.0281 36.6168 40.6794C36.5593 41.4846 36.4442 42.4624 36.5018 43.3827L36.7894 43.6703C37.2495 44.0154 37.8247 44.188 38.3423 44.3605C39.6877 44.79 40.9958 45.3286 42.2535 45.971C42.6561 46.2011 43.0012 46.4886 43.2888 46.8337C43.0012 46.8913 42.7136 46.7762 42.3685 46.7187C41.1031 46.2011 39.8953 45.6259 38.6299 45.1657L36.6168 44.418C36.3292 44.2455 36.0416 44.0154 35.8691 43.7278C35.754 43.4402 35.8116 43.0951 35.8116 42.8075C35.8116 42.1173 35.8691 41.4271 36.1567 40.7369C35.6965 40.852 35.2939 40.9095 34.8338 40.852C35.0063 40.6219 35.2939 40.5068 35.5815 40.3918C36.6743 39.9317 37.8247 39.6441 38.9175 39.0114C39.8378 38.4937 40.7005 37.8611 41.3907 37.1133C41.7934 36.7107 42.0809 36.2506 42.2535 35.7329C42.5411 35.1002 42.6561 34.3525 42.7136 33.6623C42.9437 32.2244 42.9437 30.7864 43.0587 29.406C43.0587 29.0609 43.0587 28.7733 43.1738 28.4857Z" fill="#262626"/>
<path d="M42.5977 24.625L42.4827 25.0276C42.3101 25.3152 42.1376 25.5453 41.85 25.7178C41.5624 25.8904 41.2173 25.9479 40.8722 26.0054L39.8369 26.1205C39.5493 26.1205 39.3767 26.293 39.2617 26.4656L38.8591 26.8682C38.7441 26.9257 38.5715 26.8107 38.629 26.6956C38.6865 26.2355 39.0316 25.8904 39.2617 25.5453C39.4343 25.3727 39.6643 25.1427 39.9519 25.1427L41.6774 24.8551C41.965 24.7976 42.2526 24.625 42.5977 24.625ZM25.0549 24.8551C25.7451 24.7976 26.2628 25.0276 26.8955 25.0851C27.7582 25.2002 28.621 25.3152 29.4838 25.3152L30.8642 25.4302C31.3243 25.4878 31.842 25.4302 32.2446 25.6603C32.6472 25.8904 32.9348 26.2355 33.1649 26.5806C33.2224 26.6956 33.2799 26.8107 33.1649 26.9832C33.1074 27.0407 32.9923 26.9832 32.9348 26.9257C32.7047 26.8107 32.5322 26.5806 32.3021 26.5231L31.6119 26.4656L30.0014 26.408L28.736 26.3505C28.1609 26.293 27.5857 26.293 27.0105 26.0629C26.6079 25.9479 26.3203 25.7178 25.9177 25.5453L25.2275 25.0276C25.1124 24.9701 25.0549 24.9701 25.0549 24.8551Z" fill="#262626"/>
<path d="M31.6689 17.9549C32.0715 17.9549 32.4741 18.0699 32.7617 18.3C32.9918 18.415 33.1643 18.53 33.2218 18.7601C33.2794 18.8751 33.2218 19.0477 33.1068 19.1052C32.8192 19.1627 32.5316 18.9902 32.3016 18.9327L31.7839 18.8751C31.0362 18.8176 30.2885 18.9327 29.5407 19.1052C28.2821 19.4613 27.1084 20.0678 26.0897 20.8882C25.8596 21.0033 25.572 21.1758 25.2844 21.1183C25.1119 21.1183 25.1119 20.8882 25.1694 20.7157C25.2269 20.3706 25.572 20.083 25.8596 19.7954C26.4348 19.2778 27.1825 18.9327 27.8727 18.6451C29.0231 18.1274 30.4035 17.8398 31.6689 17.9549ZM40.6416 18.0699C41.0442 17.9549 41.4468 18.0124 41.7919 18.2425C42.022 18.415 42.2521 18.5876 42.3096 18.8751C42.3671 19.0477 42.3671 19.2202 42.1945 19.2778C42.022 19.3353 41.7919 19.3353 41.6194 19.2202C41.3318 19.0477 41.1017 18.8751 40.7566 18.8751C40.469 18.8751 40.1814 18.9327 39.9514 19.0477C39.4912 19.2778 39.0311 19.6804 38.801 20.1405L38.4559 20.6582H38.2834V20.3131C38.3984 19.8529 38.686 19.3928 39.0311 19.0477C39.4337 18.5876 40.0089 18.1849 40.6416 18.0699Z" fill="#262626"/>
<path d="M15.1619 28.0248C15.4495 28.0248 15.737 27.9673 15.9671 28.1399C16.1397 28.2549 16.2547 28.4274 16.1972 28.6575C16.0821 28.8876 15.8521 29.0601 15.5645 29.0601H14.6442C14.3566 29.0026 14.1266 28.8876 14.0115 28.6575C13.954 28.4274 14.1266 28.2549 14.2991 28.1399C14.5867 28.0248 14.8743 28.0823 15.1619 28.0248ZM15.9096 29.3477C16.0821 29.4052 16.3122 29.5203 16.3122 29.7503C16.3122 29.9229 16.2547 30.0955 16.0821 30.153C15.7946 30.383 15.4495 30.383 15.1044 30.4981C14.8168 30.5556 14.5292 30.6131 14.2991 30.4406C14.069 30.268 14.1266 29.9229 14.2991 29.7503C14.5292 29.5203 14.7593 29.5203 15.0468 29.4628C15.3344 29.4052 15.622 29.2902 15.9096 29.3477ZM20.0508 32.3386H20.511C20.6835 32.3961 20.8561 32.5687 20.8561 32.7988C20.8561 33.0864 20.626 33.3164 20.3384 33.3739C20.0508 33.489 19.8208 33.2589 19.7057 33.0288C19.6482 32.7412 19.7633 32.3961 20.0508 32.3386Z" fill="#262626"/>
<path d="M37.6512 30.1484C37.6512 30.321 37.5361 30.4935 37.4211 30.6661C37.191 31.0112 36.7884 31.2413 36.3858 31.3563C36.0982 31.4138 35.8681 31.2413 35.6381 31.3563C35.408 31.3563 35.1779 31.4138 34.9478 31.2988C34.8328 31.2413 34.8328 31.0687 34.9478 30.9537C35.1204 30.7236 35.408 30.5511 35.6381 30.5511C35.8681 30.4935 36.0407 30.4935 36.2132 30.6661L36.2707 31.0687C36.5583 30.9537 36.6734 30.7811 36.9034 30.6086L37.6512 30.1484Z" fill="#262626"/>
<path d="M44.0924 28.9461C44.61 28.9461 45.0702 29.1762 45.3578 29.5788C45.4922 29.7555 45.59 29.9572 45.6455 30.1721C45.7009 30.387 45.713 30.6108 45.6808 30.8305C45.6487 31.0501 45.573 31.2611 45.4583 31.4511C45.3436 31.6411 45.1921 31.8063 45.0127 31.937C45.4728 32.0521 45.9329 32.3397 46.278 32.6848C46.7957 33.3175 47.1983 34.1802 47.1408 35.043C47.0833 35.5031 46.9107 35.9057 46.6807 36.2508C46.2205 36.9986 45.4728 37.5162 44.6676 37.8613L45.1277 38.379C45.3002 38.7816 45.3578 39.1842 45.3578 39.6444C45.3002 40.3346 45.0127 41.0248 44.495 41.5424C43.9009 42.1105 43.1288 42.4559 42.3093 42.5202C41.7342 42.5777 41.1015 42.5777 40.5263 42.4052C40.4688 42.8078 40.3538 43.268 40.1812 43.6706C39.7937 44.3541 39.1773 44.8788 38.4408 45.1524C37.7042 45.426 36.8948 45.4308 36.155 45.166C35.4648 44.8784 34.8896 44.3608 34.5445 43.7856C33.6818 44.3033 32.7615 44.4758 31.7837 44.4758C30.9784 44.5333 30.0006 44.4758 29.3104 44.0732C28.8503 43.9006 28.5627 43.5555 28.2751 43.2104C28.1026 43.0379 27.9875 42.8653 27.93 42.5777C27.2973 43.0954 26.4346 43.2104 25.6868 43.0954C25.1117 42.9228 24.594 42.6353 24.3064 42.1176C24.0188 41.7725 23.9613 41.2548 23.9613 40.7947H23.1561C22.6959 40.7372 22.2358 40.5071 21.8332 40.2195C21.2005 39.6444 20.6828 38.8966 20.3377 38.0914C20.2227 37.7463 20.1077 37.4012 20.1077 36.9986C20.1077 36.3659 20.3377 35.7332 20.7404 35.2155C20.5678 34.8129 20.5103 34.4103 20.6253 34.0077C20.7979 33.3175 21.3155 32.7423 21.8907 32.3972C22.4084 32.0521 23.041 31.937 23.6737 31.9946C23.7888 31.6495 23.9613 31.4194 24.2489 31.1893C24.8816 30.6141 25.6868 30.269 26.5496 30.269C27.1248 30.269 27.6424 30.3266 28.1026 30.5566C28.3326 30.2115 28.6202 30.039 28.9653 29.9239C29.598 29.6364 30.2882 29.6939 30.9209 29.9815C32.0138 30.3841 32.8765 31.0168 33.9118 31.4194C34.1994 31.6495 34.602 31.5919 35.0047 31.6495C35.4073 31.707 35.8099 31.6495 36.2125 31.5919C36.3851 31.5344 36.6151 31.5344 36.7302 31.4194L37.823 30.8442L38.9733 29.9815C39.4335 29.6939 40.0087 29.4063 40.5838 29.4638C40.8139 29.5213 40.9865 29.6364 41.1015 29.8089C41.9894 29.2279 43.0315 28.9274 44.0924 28.9461Z" fill="#262626"/>
<path d="M30.2323 34.2882C30.4048 34.2307 30.5198 34.2882 30.5198 34.4032C30.5198 34.5758 30.3473 34.7483 30.1747 34.8058C30.0022 34.6333 30.0597 34.4032 30.2323 34.2882ZM31.6702 34.9784L33.7408 35.381L35.4663 35.4961C35.869 35.5536 36.2141 35.4961 36.5592 35.6111C36.5016 35.7261 36.3866 35.7836 36.2141 35.8412C34.788 36.0658 33.329 35.9475 31.9578 35.4961C31.7852 35.4385 31.5552 35.3235 31.4976 35.1509C31.4401 35.0359 31.5552 34.9209 31.6702 34.9784Z" fill="#FFDECC"/>
<path d="M29.9445 8.00631C31.5687 8.00954 33.188 8.18304 34.776 8.52397C35.4087 8.69652 35.9839 8.81155 36.559 9.04162L38.5721 9.78935C39.1473 9.9619 39.665 10.307 40.2401 10.5371L41.1604 10.8822L42.8284 11.2273C43.116 11.3423 43.3461 11.5149 43.4611 11.8025C43.6337 12.1476 43.5762 12.4927 43.4611 12.8378L44.0363 13.1254C44.3239 13.4129 44.4389 13.8156 44.3239 14.2182C44.2088 14.4483 43.9788 14.6208 43.7487 14.7358C42.5248 15.3635 41.1151 15.527 39.78 15.196L37.2492 14.6208L33.6832 13.643C30.6344 12.6 27.3161 12.661 24.3079 13.8156L24.0778 14.6208C23.8477 15.5411 23.6752 16.4614 23.6176 17.3816V18.3594L23.5601 18.8196C23.3876 19.2222 23.0425 19.6248 22.8124 20.0274C22.1222 21.0627 21.4895 22.1556 20.9718 23.2484L20.8568 24.0536V26.2968C20.8568 26.5844 20.9718 26.8145 20.7993 27.0445C19.9365 26.9295 19.0738 26.6994 18.1535 26.4694C18.0385 26.4694 17.8659 26.4694 17.7509 26.3543L17.3483 25.8367C17.1182 25.6641 17.0607 25.319 16.9456 25.0314C16.543 23.8236 16.428 22.4432 16.428 21.1203C16.428 19.5098 16.7156 17.9568 17.0032 16.4038C17.2332 15.5411 17.5783 14.7358 17.9809 13.9881C18.5561 12.8378 19.3614 11.86 20.2816 10.9972C21.2019 10.0769 22.2947 9.44425 23.5026 8.98411C25.5676 8.24928 27.7545 7.91735 29.9445 8.00631ZM19.3038 27.0445C19.879 27.0445 20.4542 27.2171 20.9718 27.3321C21.2019 27.3896 21.4895 27.5047 21.6621 27.6772C21.8346 27.7923 21.7771 28.0223 21.6045 28.0799C21.0869 28.2524 20.6843 28.0799 20.2241 27.9648C19.879 27.8498 19.4189 27.7348 19.0738 27.5047C18.9587 27.4472 18.7862 27.2746 18.9012 27.1596C19.0163 27.0445 19.1888 27.0445 19.3038 27.0445ZM44.4389 33.7741C44.4964 33.8891 44.4964 33.9466 44.3814 34.0617L44.4389 33.7741Z" fill="#262626"/>
</g>
</svg>
