<svg width="61" height="60" viewBox="0 0 61 60" fill="none" xmlns="http://www.w3.org/2000/svg">
<mask id="mask0_57_7013" style="mask-type:luminance" maskUnits="userSpaceOnUse" x="2" y="1" width="57" height="58">
<path d="M58.5716 1.875H2.20459V58.242H58.5716V1.875Z" fill="white"/>
</mask>
<g mask="url(#mask0_57_7013)">
<path d="M33.1121 10.4046C35.4704 10.7497 37.7135 11.67 39.6116 13.1079C41.2221 14.3158 42.4875 15.9262 43.3502 17.7668C44.098 19.3773 44.5006 21.2178 44.4431 23.0009C44.3855 23.8636 44.2705 24.7264 43.9829 25.5316H43.8679L43.9254 24.3238C43.9829 22.5982 43.8104 20.9302 43.1777 19.3198C42.6025 17.5942 41.5672 16.0413 40.3018 14.7759C37.8861 12.4752 34.6651 11.2098 31.3291 11.1523C29.1593 11.1164 27.0109 11.5863 25.0542 12.5248C23.0974 13.4632 21.3861 14.8444 20.0557 16.5589C18.3524 18.8605 17.5356 21.6989 17.755 24.5538L17.8701 25.9918C18.3302 25.9918 18.9629 25.9918 19.308 26.3944L19.1354 26.5669L18.1576 26.6245C17.4674 26.682 16.7772 26.912 16.2596 27.3722C15.6874 27.9865 15.3424 28.778 15.2818 29.6154C14.9942 31.4559 15.972 33.354 17.525 34.3893C18.4452 34.9645 19.5956 35.2521 20.6884 34.9069C20.9185 34.7919 21.2061 34.6194 21.4936 34.7344C21.6662 34.7919 21.7237 34.9645 21.7812 35.137C22.9512 37.4896 24.741 39.4783 26.9578 40.8887C27.4179 41.2914 27.9931 41.6365 28.5683 41.9241C29.6036 42.3842 30.7539 42.7293 31.8468 43.0169L33.6873 43.477C33.9749 43.5345 34.205 43.5345 34.435 43.6496L34.205 43.7071C32.767 43.8221 31.4441 43.5345 30.0637 43.1319C29.3735 42.9594 28.7408 42.7293 28.1081 42.4417C26.3009 41.5212 24.6664 40.2953 23.2767 38.8181L23.3917 40.4286C23.4492 41.4064 23.3917 42.4417 23.0466 43.4195C22.8165 44.1097 22.4139 44.7999 21.9538 45.3751C21.3786 45.9503 20.6884 46.4679 19.9982 46.8705C19.423 47.2732 18.7903 47.6758 18.1576 47.9059L17.2374 48.1934L17.755 47.6758L19.5381 46.5254L20.8034 45.5477C21.7738 44.7215 22.4249 43.5821 22.644 42.3267C22.759 41.5214 22.759 40.7162 22.759 39.8534V38.3005C22.1839 37.4952 21.4936 36.6325 21.2061 35.6547C20.2283 36.1148 19.0204 36.0573 18.0426 35.5972C17.0648 35.1945 16.2021 34.5043 15.5694 33.6991C14.8792 32.7213 14.4765 31.6285 14.3615 30.4781C14.2465 29.3278 14.4765 28.1774 15.2243 27.2571C15.7419 26.682 16.4896 26.2218 17.2374 26.0493C17.0073 25.244 16.8923 24.3813 16.8923 23.5185C16.9396 21.6168 17.3895 19.7466 18.2124 18.0314C19.0353 16.3163 20.2124 14.795 21.6662 13.568C23.2368 12.2528 25.0713 11.2898 27.0459 10.7441C29.0204 10.1984 31.089 10.0826 33.1121 10.4046Z" fill="#262626"/>
<path d="M40.3014 14.7817C41.5668 16.0471 42.6021 17.6001 43.1773 19.3256C43.81 20.9361 43.9825 22.6041 43.925 24.3296L43.8675 25.5375L43.5799 26.4002L43.4649 27.148L43.5799 30.3689C43.5799 31.5768 43.6374 32.7847 43.5224 33.9925L43.3499 36.6958C43.2348 37.6161 42.9472 38.4789 42.5446 39.2841C41.9119 40.3194 41.0492 41.1822 40.0139 41.8149C39.2661 42.275 38.4609 42.5051 37.6556 42.7352L35.47 43.3679L34.4922 43.5404C34.4922 43.5979 34.5497 43.6554 34.6647 43.6554C35.1249 43.943 35.6425 43.943 36.1602 43.8855C35.9876 44.2881 35.9301 44.6908 36.0452 45.1509C36.2177 45.5535 36.6779 45.7836 37.023 45.9561C37.7132 46.3012 38.4034 46.3588 39.0936 46.4738C39.4962 46.8189 39.8988 47.279 40.0139 47.8542C40.1289 48.3143 40.1289 48.7745 39.8988 49.1771C39.6112 49.7523 39.0936 50.2124 38.5184 50.5C37.7707 50.9601 36.9654 51.3052 36.1027 51.5353C31.9034 52.5405 27.5239 52.5208 23.3338 51.4778C22.356 51.2477 21.4358 50.9601 20.573 50.5C19.8828 50.1549 19.2501 49.7523 18.7324 49.2346C18.4449 48.832 18.2148 48.4294 18.1573 47.9117C18.79 47.6817 19.4227 47.279 19.9978 46.8764C20.688 46.4738 21.3782 45.9561 21.9534 45.381C22.4136 44.8058 22.8162 44.1156 23.0462 43.4254C23.3914 42.4476 23.4489 41.4123 23.3914 40.4345L23.2763 38.824L24.5417 40.1469C25.6345 41.0096 26.8424 41.8724 28.1078 42.4476C28.7405 42.7352 29.3732 42.9652 30.0634 43.1378C31.4438 43.5404 32.7667 43.828 34.2046 43.713L34.4347 43.6554C34.2046 43.5404 33.9745 43.5404 33.687 43.4829L31.8464 43.0228C30.7536 42.7352 29.6032 42.3901 28.5679 41.9299L26.8999 40.9521C26.2672 40.4345 25.577 39.9743 25.0018 39.3992C23.673 38.1929 22.5806 36.7495 21.7809 35.1429C21.7233 34.9703 21.6658 34.7978 21.4933 34.7403C21.2057 34.6252 20.9181 34.7978 20.688 34.9128C19.5952 35.2579 18.4449 34.9703 17.5246 34.3952C16.748 33.8825 16.1277 33.1657 15.732 32.3235C15.3362 31.4813 15.1803 30.5463 15.2814 29.6212C15.3389 28.816 15.684 28.0107 16.2592 27.378C16.7769 26.9179 17.4671 26.6878 18.1573 26.6303L19.1351 26.5728L19.3076 26.4002C18.9625 25.9976 18.3298 25.9976 17.8697 25.9976L17.7547 24.5597C17.5352 21.7048 18.352 18.8664 20.0553 16.5648C21.3857 14.8503 23.097 13.4691 25.0538 12.5306C27.0105 11.5922 29.1589 11.1223 31.3287 11.1582C34.6647 11.2157 37.8857 12.4811 40.3014 14.7817Z" fill="#FFDECC"/>
<path d="M43.5808 26.3984C43.7534 26.3984 43.7534 26.6285 43.8109 26.7435C43.9834 27.3762 44.0409 28.0664 44.0985 28.6991L44.2135 29.907C44.271 31.1724 44.3285 32.3802 44.271 33.6456C44.2135 34.8535 44.2135 36.1764 43.9834 37.3842C43.7391 38.6367 43.192 39.8104 42.39 40.8029C41.588 41.7954 40.5553 42.5766 39.382 43.0785C38.5193 43.4811 37.599 43.7111 36.6212 43.8262V44.6889C36.6787 44.8615 36.7938 44.919 36.9088 45.034C37.599 45.3791 38.2317 45.4942 38.9794 45.6667C39.6696 45.8393 40.3598 45.9543 41.05 46.2994C40.8775 46.472 40.6474 46.5295 40.4173 46.5295C40.0147 46.587 39.5546 46.472 39.0944 46.472C38.4042 46.3569 37.714 46.2994 37.0238 45.9543C36.6787 45.7818 36.2186 45.5517 36.046 45.1491C35.931 44.6889 35.9885 44.2863 36.1611 43.8837C35.6434 43.9412 35.1258 43.9412 34.6656 43.6536C34.5506 43.6536 34.4931 43.5961 34.4931 43.5386L35.4709 43.366L37.6565 42.7334C38.4618 42.5033 39.267 42.2732 40.0147 41.8131C41.05 41.1804 41.9128 40.3176 42.5455 39.2823C42.9481 38.4771 43.2357 37.6143 43.3507 36.694L43.5233 33.9907C43.6383 32.7829 43.5808 31.575 43.5808 30.3671L43.4658 27.1462L43.5808 26.3984ZM17.2379 27.9514C17.698 27.9514 18.2157 28.0089 18.5608 28.354C18.8484 28.5841 19.1359 28.8717 19.251 29.2168C19.3085 29.3893 19.251 29.5619 19.1359 29.6769L18.3882 30.1371C17.9856 30.4822 17.9856 31.2299 18.3882 31.575C18.7333 31.8626 19.1935 32.0351 19.5961 32.2077C19.7111 32.2077 19.8837 32.2652 19.9412 32.3802C19.8837 32.4953 19.7686 32.5528 19.6536 32.5528C19.0784 32.5528 18.5033 32.3802 18.0431 32.0351C17.7555 31.8626 17.583 31.575 17.5255 31.2874C17.4104 30.8273 17.4104 30.3096 17.7555 29.907C17.9856 29.5619 18.3882 29.3893 18.7908 29.2168C18.5608 28.9292 18.3882 28.5841 17.9856 28.4691C17.583 28.2965 17.1228 28.2965 16.7202 28.1815L17.2379 27.9514Z" fill="#262626"/>
<path d="M42.0268 24.2734C42.2569 24.2734 42.487 24.2734 42.602 24.446C42.8321 24.6185 42.8321 25.0212 42.5445 25.1937C42.3719 25.3087 42.1994 25.3087 41.9693 25.3087L40.934 25.5388C40.934 25.9414 40.8765 26.4016 40.7039 26.8042C40.5889 27.0918 40.3588 27.3219 40.1287 27.4944C39.7836 27.667 39.381 27.5519 39.151 27.2643L38.9784 26.8042C38.8059 26.9768 38.6908 27.1493 38.4607 27.2643C38.2882 27.3219 38.2307 27.2643 38.2307 27.0918C38.2882 26.7467 38.4607 26.4591 38.6908 26.229C39.2965 25.3902 40.1371 24.7498 41.1065 24.3885L42.0268 24.2734ZM28.1076 25.0787C28.7403 25.0787 29.3155 25.1937 29.8907 25.3087C30.6959 25.5388 31.5012 25.7689 32.1914 26.3441C32.3639 26.5166 32.6515 26.6892 32.709 26.9192C32.709 27.0343 32.709 27.0918 32.594 27.0918L31.9613 26.8042C31.3861 26.5166 30.6959 26.3441 30.0057 26.229C29.8907 26.7467 29.7756 27.2643 29.4305 27.7245C29.2005 27.9545 28.9129 28.0696 28.5678 28.0696C28.1076 28.0121 27.6475 27.782 27.3599 27.4369C27.0723 27.0343 27.0148 26.6316 26.9573 26.114L26.152 26.3441C25.9795 26.4016 25.8069 26.4591 25.6344 26.4016C25.3468 26.3441 25.2318 26.0565 25.2893 25.7689C25.3468 25.5388 25.5769 25.4238 25.8069 25.3663C26.4971 25.0787 27.3599 25.0212 28.1076 25.0787Z" fill="#262626"/>
<path d="M30.2941 18.5791C31.2143 18.6366 32.1921 18.9817 32.9399 19.5569C33.1124 19.7294 33.3425 19.8444 33.4 20.0745C33.4575 20.1895 33.3425 20.3621 33.2274 20.3046C32.7673 20.2471 32.3647 20.017 31.9045 19.902C31.5019 19.7294 31.0418 19.6144 30.5816 19.6144C30.179 19.5569 29.7189 19.6144 29.3163 19.6719C28.4535 19.7869 27.5907 20.1895 26.843 20.5922L25.6352 21.1098L25.5776 21.0523C25.6352 20.8222 25.7502 20.5346 25.9227 20.3621C26.2678 19.7869 26.9005 19.4418 27.4757 19.1542C28.3385 18.7516 29.3163 18.5215 30.2941 18.5791ZM41.4524 18.8091C41.74 18.9242 42.0851 19.0967 42.3152 19.3843C42.5452 19.6144 42.6028 19.902 42.5452 20.2471L41.2223 19.8444C40.8197 19.7294 40.4746 19.7869 40.072 19.7294C39.6694 19.7294 39.2092 19.7869 38.8641 20.017L38.1164 20.4771H37.9439C37.8863 20.3046 37.9439 20.132 38.0589 20.017C38.3465 19.4993 38.8066 19.1542 39.3243 18.9817C40.0145 18.7516 40.7047 18.6366 41.4524 18.8091Z" fill="#262626"/>
<path d="M37.4253 31.6328V31.6903C37.1953 32.1505 36.7926 32.5531 36.275 32.7256C36.1024 32.7832 35.8724 32.7832 35.7573 32.6681V32.4381C36.1599 32.1505 36.6776 31.9204 37.1377 31.7478L37.4253 31.6328Z" fill="#262626"/>
<path fill-rule="evenodd" clip-rule="evenodd" d="M29.3738 33.6428L28.5685 33.4128H28.511C28.396 33.3553 28.2234 33.3553 28.1659 33.4703C28.1084 33.5278 28.1659 33.6428 28.2234 33.6428L28.5685 33.8154L28.6836 33.8729C30.0061 34.5409 31.4215 35.0062 32.8823 35.2533C32.8823 35.656 32.9974 36.0586 33.285 36.4037C33.5725 36.8063 33.9752 37.1514 34.4928 37.324C35.068 37.554 35.7007 37.4965 36.2759 37.2664C36.851 37.0364 37.3112 36.5762 37.5412 36.0011C37.6563 35.771 37.6563 35.4834 37.6563 35.2533L38.6916 34.9082V34.8507L38.8066 34.7357C38.2506 34.7303 37.6946 34.7303 37.1386 34.7357C35.4869 34.8794 33.8234 34.802 32.1921 34.5056L29.949 33.8729L29.8339 33.8154L29.3738 33.6428ZM33.3425 35.3109C33.4 35.886 33.8601 36.3462 34.3778 36.6337C35.068 37.1514 36.2183 36.9213 36.6785 36.1736C36.851 35.9435 36.9085 35.656 36.9661 35.3684V35.3109L35.4706 35.4259L35.5281 35.4834C35.5281 35.656 35.5856 35.771 35.4706 35.9435C35.3556 36.1161 35.1255 36.1161 35.068 35.9435C34.953 35.771 34.953 35.5984 35.0105 35.4259C34.5316 35.3817 34.0523 35.3434 33.5725 35.3109H33.3425Z" fill="#262626"/>
<path d="M27.6486 7.99219H29.9493C32.7676 8.10722 35.5285 8.62488 38.2318 9.25757C39.8423 9.66019 41.3377 10.1778 42.7756 10.9831C43.5234 11.4432 44.3286 12.0184 44.9038 12.7086C45.594 13.4563 46.0541 14.3766 46.2267 15.3544C46.4567 16.5623 46.4567 17.8276 46.0541 19.0355C45.7665 19.8983 45.2489 20.761 44.5012 21.3362C43.4658 22.199 42.143 22.7741 40.8201 22.8317C40.705 22.8892 40.59 22.8317 40.59 22.6591L41.0501 21.7388C40.4337 22.3429 39.6855 22.7957 38.8645 23.0617C38.6344 23.1192 38.2893 23.1768 38.0592 23.0617V22.7741C38.0592 21.9114 38.0017 21.1061 37.7716 20.3009C37.5991 19.3806 37.1389 18.6329 36.7363 17.8276C36.8514 18.6904 36.7938 19.6107 36.6213 20.4734C36.4487 21.2787 36.1036 21.9689 35.5285 22.5441C35.4134 22.7741 35.1258 22.8317 34.8958 22.7166L34.7807 22.314C34.6657 21.6813 34.3781 21.1061 34.0905 20.531C33.5729 19.3806 32.8251 18.4028 31.9624 17.4825C30.703 16.2235 29.2208 15.2093 27.5911 14.4916C27.6757 16.5025 27.4821 18.5155 27.0159 20.4734C26.7858 21.2787 26.4407 22.0839 25.9231 22.7741C25.7505 23.0042 25.5204 23.3493 25.2329 23.4643H24.8302C24.8878 22.7741 24.8878 22.0839 24.7727 21.3937C24.6577 20.761 24.4851 20.0708 24.1975 19.4956C24.025 20.531 23.4498 21.3937 22.7596 22.199C22.242 22.6591 21.7243 23.1192 21.0916 23.4643V27.3755L21.1491 29.101C21.1491 29.2736 20.9766 29.5612 20.804 29.6187C20.5164 29.5612 20.2864 29.4461 20.0563 29.2736C19.3661 28.8135 18.7334 28.2958 18.1582 27.6631C17.2143 26.6155 16.4931 25.387 16.0383 24.0523C15.5835 22.7175 15.4046 21.3043 15.5124 19.8983C15.7045 17.4225 16.6111 15.0557 18.1221 13.0852C19.6332 11.1147 21.6838 9.62515 24.025 8.79743C25.1753 8.33729 26.3832 8.0497 27.6486 7.99219Z" fill="#262626"/>
</g>
</svg>
