<svg width="1001" height="641" viewBox="0 0 1001 641" fill="none" xmlns="http://www.w3.org/2000/svg">
<path d="M500.5 0.5L503.763 304.637L629.91 11.404L510.067 305.718L750.5 43.372L515.719 307.806L854.053 94.226L520.334 310.76L933.513 160.5L523.597 314.377L983.46 237.678L525.286 318.412L1000.5 320.5L525.286 322.588L983.46 403.322L523.597 326.623L933.513 480.5L520.334 330.24L854.053 546.774L515.719 333.194L750.5 597.628L510.067 335.282L629.91 629.596L503.763 336.363L500.5 640.5L497.237 336.363L371.09 629.596L490.933 335.282L250.5 597.628L485.281 333.194L146.947 546.774L480.666 330.24L67.487 480.5L477.403 326.623L17.537 403.322L475.714 322.588L0.5 320.5L475.714 318.412L17.537 237.678L477.403 314.377L67.487 160.5L480.666 310.76L146.947 94.226L485.281 307.806L250.5 43.372L490.933 305.718L371.09 11.404L497.237 304.637L500.5 0.5Z" fill="white"/>
</svg>
